<?xml version="1.0" standalone="no"?>
<!DOCTYPE svg PUBLIC "-//W3C//DTD SVG 20010904//EN"
 "http://www.w3.org/TR/2001/REC-SVG-20010904/DTD/svg10.dtd">
<svg version="1.0" xmlns="http://www.w3.org/2000/svg"
 width="1254.000000pt" height="1254.000000pt" viewBox="0 0 1254.000000 1254.000000"
 preserveAspectRatio="xMidYMid meet">

<g transform="translate(0.000000,1254.000000) scale(0.100000,-0.100000)"
fill="#000000" stroke="none">
<path d="M6081 11166 c2 -2 96 -6 209 -8 133 -4 170 -3 105 2 -107 8 -321 12
-314 6z"/>
<path d="M5795 11144 c-146 -19 -414 -74 -359 -74 5 0 63 11 129 25 175 36
314 51 354 37 20 -7 40 -8 54 -2 18 7 15 9 -23 11 -30 2 -17 5 40 9 l85 6 -85
1 c-47 0 -134 -6 -195 -13z"/>
<path d="M6595 11135 c98 -14 166 -18 100 -5 -22 5 -74 11 -115 14 l-75 5 90
-14z"/>
<path d="M8045 11039 c-82 -48 -155 -96 -162 -106 -10 -12 -13 -70 -13 -209 0
-168 2 -194 18 -212 9 -10 86 -59 171 -107 171 -97 174 -97 258 -47 26 16 70
41 96 56 l49 28 -28 29 c-15 16 -33 29 -39 29 -6 0 -45 -20 -88 -45 l-77 -46
-135 76 -135 76 0 164 0 163 131 76 c72 42 133 76 137 76 3 0 65 -34 137 -75
l132 -75 5 -202 c4 -126 2 -208 -4 -215 -14 -18 -5 -28 83 -93 81 -60 109 -67
137 -32 26 33 14 57 -60 116 l-73 57 4 70 c2 48 -3 85 -15 118 -16 46 -16 51
-1 90 22 54 22 113 0 139 -10 11 -85 59 -167 106 -105 61 -157 86 -180 85 -20
-1 -84 -32 -181 -90z"/>
<path d="M6758 11113 c6 -2 18 -2 25 0 6 3 1 5 -13 5 -14 0 -19 -2 -12 -5z"/>
<path d="M6808 11103 c6 -2 18 -2 25 0 6 3 1 5 -13 5 -14 0 -19 -2 -12 -5z"/>
<path d="M6850 11097 c7 -7 162 -38 167 -33 3 2 -17 9 -44 14 -83 18 -128 25
-123 19z"/>
<path d="M6858 11073 c7 -3 16 -2 19 1 4 3 -2 6 -13 5 -11 0 -14 -3 -6 -6z"/>
<path d="M5358 11053 c7 -3 16 -2 19 1 4 3 -2 6 -13 5 -11 0 -14 -3 -6 -6z"/>
<path d="M5700 11050 c0 -3 6 -12 13 -19 7 -8 7 -11 1 -8 -7 4 -14 -2 -17 -13
-4 -15 0 -20 16 -21 27 -1 -8 -11 -96 -29 -32 -6 -56 -14 -54 -17 3 -3 43 3
89 12 46 9 133 22 194 30 98 11 103 13 49 15 -39 1 -53 4 -41 9 25 10 5 17
-44 16 -19 0 -41 6 -48 13 -8 7 -18 10 -23 7 -5 -4 -9 -2 -9 3 0 5 -7 9 -15 9
-8 0 -15 -3 -15 -7z"/>
<path d="M5775 11050 c-3 -5 -1 -10 4 -10 6 0 11 5 11 10 0 6 -2 10 -4 10 -3
0 -8 -4 -11 -10z"/>
<path d="M6820 11051 c0 -5 9 -7 20 -4 11 3 20 7 20 9 0 2 -9 4 -20 4 -11 0
-20 -4 -20 -9z"/>
<path d="M6948 11053 c6 -2 18 -2 25 0 6 3 1 5 -13 5 -14 0 -19 -2 -12 -5z"/>
<path d="M7038 11053 c7 -3 16 -2 19 1 4 3 -2 6 -13 5 -11 0 -14 -3 -6 -6z"/>
<path d="M5260 11030 c-30 -10 -50 -18 -45 -19 6 0 37 8 70 18 33 11 53 19 45
19 -8 1 -40 -7 -70 -18z"/>
<path d="M7170 11016 c27 -11 30 -15 14 -15 -25 -1 -40 -29 -25 -44 16 -16 62
8 55 28 -3 8 -1 15 6 15 6 0 8 -5 4 -12 -4 -6 -3 -8 4 -4 6 3 14 1 18 -5 4 -8
3 -9 -4 -5 -12 7 -18 -11 -26 -76 -3 -27 0 -38 10 -38 7 0 16 5 19 10 7 11 47
4 88 -17 19 -9 27 -21 27 -39 0 -63 53 -114 120 -114 83 0 130 45 130 123 0
42 -5 54 -33 82 -48 48 -94 54 -157 22 -39 -20 -56 -24 -78 -17 -49 13 -69 28
-81 59 -13 29 -40 46 -96 56 -28 5 -28 4 5 -9z"/>
<path d="M6010 11010 c-34 -4 26 -7 155 -8 116 -1 248 -3 295 -6 68 -4 76 -3
40 4 -57 12 -417 19 -490 10z"/>
<path d="M5086 10975 c-38 -14 -72 -28 -75 -31 -6 -6 24 1 58 14 10 4 9 -2 -4
-21 -17 -26 -17 -27 3 -27 22 0 42 20 20 20 -8 1 -6 6 6 15 15 11 16 15 5 16
-8 0 4 7 25 15 40 14 57 24 40 24 -5 -1 -40 -12 -78 -25z"/>
<path d="M6561 10986 c3 -3 31 -8 64 -11 33 -4 105 -15 160 -26 106 -20 139
-23 90 -8 -83 26 -330 61 -314 45z"/>
<path d="M4922 10913 c-35 -14 -61 -27 -59 -29 3 -4 128 44 136 52 10 10 -19
1 -77 -23z"/>
<path d="M5450 10925 c-25 -8 -65 -19 -89 -25 -23 -6 -41 -13 -39 -15 4 -4
199 42 206 50 9 9 -31 4 -78 -10z"/>
<path d="M7074 10930 c-12 -12 -88 -15 -134 -5 -73 16 -21 -4 78 -29 118 -30
122 -30 98 -13 -9 7 -18 22 -19 35 -1 24 -8 27 -23 12z"/>
<path d="M5225 10880 c3 -5 -16 -21 -42 -35 -52 -29 -52 -28 56 6 60 20 69 25
50 30 -37 11 -71 10 -64 -1z"/>
<path d="M4746 10834 c-67 -33 -102 -56 -61 -39 11 4 28 8 37 9 9 0 15 3 12 5
-3 3 19 18 48 33 29 15 49 27 43 27 -5 0 -41 -16 -79 -35z"/>
<path d="M5019 10850 c0 -3 -2 -15 -5 -27 -3 -16 1 -23 11 -23 8 0 15 6 15 13
0 12 -19 46 -21 37z"/>
<path d="M5034 10791 c-28 -9 -61 -24 -75 -33 -28 -20 -12 -17 56 12 104 43
111 51 19 21z"/>
<path d="M4580 10749 c-59 -32 -89 -56 -56 -43 14 5 17 4 11 -5 -6 -10 -3 -11
14 -1 12 6 19 15 16 20 -3 5 12 18 35 30 22 11 40 23 40 25 0 7 -1 7 -60 -26z"/>
<path d="M4770 10721 c0 -4 5 -12 12 -19 8 -8 8 -15 -2 -27 -8 -10 7 -6 46 11
65 30 80 40 47 32 -11 -3 -40 -2 -62 2 -23 4 -41 4 -41 1z"/>
<path d="M4468 10684 c-38 -20 -36 -28 2 -9 17 9 30 18 30 20 0 7 -1 6 -32
-11z"/>
<path d="M4738 10649 c-10 -5 -26 -9 -35 -7 -10 2 -17 -2 -15 -9 3 -18 -17
-16 -24 2 -4 8 -17 15 -30 15 -24 0 -24 -1 -9 -30 l16 -30 59 30 c33 17 60 32
60 35 0 7 -2 6 -22 -6z"/>
<path d="M4364 10618 c-42 -31 -53 -44 -21 -25 17 11 27 13 27 6 0 -15 31 -38
50 -38 13 0 13 1 0 12 -8 7 -15 19 -15 27 0 8 -6 14 -14 12 -12 -3 -12 0 -1
12 18 22 8 20 -26 -6z"/>
<path d="M4245 10534 c-33 -25 -64 -50 -70 -57 -7 -8 -6 -8 6 1 8 6 25 9 37 5
22 -5 32 12 11 19 -6 2 10 18 35 36 39 28 54 43 44 42 -2 0 -30 -21 -63 -46z"/>
<path d="M4473 10533 c-7 -2 -13 -11 -13 -19 0 -8 6 -11 17 -7 11 5 14 3 8 -6
-4 -8 4 -6 19 4 24 16 39 34 16 20 -5 -3 -10 -1 -10 4 0 11 -16 13 -37 4z"/>
<path d="M4279 10493 c-26 -6 -31 -41 -7 -49 14 -4 17 -8 8 -14 -8 -5 -7 -9 5
-14 9 -3 13 -10 10 -16 -3 -5 1 -10 10 -10 10 0 13 -5 9 -12 -4 -6 9 1 29 16
20 16 37 30 37 31 0 9 -66 35 -89 35 l-26 1 24 13 c25 14 18 25 -10 19z"/>
<path d="M4109 10427 c-25 -23 -38 -36 -29 -29 9 6 22 12 29 12 7 0 9 -5 4
-12 -7 -13 -15 -48 -10 -48 1 0 17 4 35 9 20 6 32 6 32 0 0 -5 -6 -9 -12 -9
-8 0 -9 -3 -3 -8 12 -9 13 -42 1 -41 -5 0 -13 -5 -17 -13 -7 -10 -9 -10 -9 0
0 6 -4 12 -9 12 -13 0 -21 -53 -10 -66 7 -8 -3 -22 -31 -44 -23 -18 -37 -25
-34 -16 3 9 1 16 -5 16 -15 0 -33 -38 -25 -53 6 -9 3 -8 -8 1 -11 9 -18 10
-23 2 -3 -6 -10 -8 -15 -5 -17 10 -20 -14 -4 -29 15 -15 11 -21 -11 -16 -5 1
-7 -2 -2 -6 10 -10 -92 -114 -107 -108 -7 3 -21 -5 -32 -17 -17 -21 -18 -22
-1 -16 20 8 17 -1 -17 -42 -31 -37 -91 -99 -76 -78 7 9 10 20 7 23 -9 9 -37
-22 -29 -32 4 -5 0 -3 -10 4 -22 18 -34 -3 -14 -24 9 -8 16 -19 16 -23 0 -14
-46 -51 -55 -44 -4 5 -5 2 -1 -4 10 -18 -19 -17 -33 1 -6 8 -22 16 -34 18 -35
7 -32 -26 5 -57 l30 -26 -29 -47 c-30 -49 -42 -55 -80 -38 -25 10 -32 29 -8
20 10 -4 15 0 15 10 0 13 -7 15 -32 11 -44 -8 -45 -11 -10 -39 42 -36 47 -72
15 -120 l-26 -40 -18 23 c-11 13 -19 19 -19 15 0 -5 -6 -2 -13 7 -7 8 -20 18
-31 22 -11 5 -16 13 -12 23 3 8 2 12 -4 9 -16 -10 -12 2 21 56 24 38 34 47 41
37 6 -9 7 -5 3 12 -5 19 -4 21 4 10 5 -8 13 -11 18 -7 4 5 1 12 -6 16 -11 7
-10 13 4 35 9 14 21 23 26 20 5 -3 9 -2 8 3 -3 20 2 33 13 30 7 -1 12 7 13 18
0 11 6 19 13 17 8 -1 11 2 7 8 -4 6 -1 17 5 25 7 8 10 15 7 15 -10 0 -92 -119
-167 -243 -76 -126 -167 -303 -226 -439 -47 -108 -125 -329 -122 -340 2 -5 21
41 42 104 21 62 60 163 86 223 50 117 114 245 105 208 -4 -15 -2 -23 5 -23 8
0 10 10 7 27 -5 25 34 123 49 123 3 0 3 -4 0 -9 -7 -11 14 -74 28 -83 5 -4 13
-5 17 -2 4 2 12 -3 19 -11 10 -12 16 -13 28 -3 8 8 4 -9 -12 -39 -18 -37 -30
-51 -41 -47 -18 7 -19 16 -2 33 10 11 8 12 -13 6 -14 -4 -35 -6 -47 -6 -13 0
-23 -4 -23 -9 0 -6 9 -10 20 -10 11 0 20 -5 20 -11 0 -5 -4 -7 -10 -4 -5 3
-10 1 -10 -4 0 -6 4 -11 8 -11 5 0 14 -16 20 -35 9 -32 7 -43 -24 -108 -28
-58 -37 -64 -18 -12 3 6 -10 10 -27 10 -31 0 -32 -2 -32 -41 0 -22 3 -46 6
-52 4 -5 5 -18 1 -29 -3 -10 4 -2 15 17 26 45 26 38 1 -29 -38 -99 -14 -62 29
47 52 128 150 325 220 440 54 88 58 98 39 86 -7 -4 -8 -3 -4 5 4 6 11 9 15 7
4 -3 33 32 64 77 130 191 355 442 557 622 36 32 56 51 45 44 -18 -13 -19 -12
-7 3 8 9 19 15 26 12 7 -3 21 6 32 18 15 18 16 20 1 9 -15 -12 -17 -12 -13 0
8 20 -20 53 -39 46 -9 -4 -15 -1 -15 9 0 8 -4 13 -9 10 -4 -3 -18 3 -29 12
l-21 19 22 21 c38 38 14 23 -34 -21z m35 -49 c-3 -4 -9 -8 -15 -8 -5 0 -9 4
-9 8 0 5 7 9 15 9 8 0 12 -4 9 -9z m-134 -252 c0 -2 -8 -10 -17 -17 -16 -13
-17 -12 -4 4 13 16 21 21 21 13z m-670 -624 c0 -5 -7 -17 -15 -28 -14 -18 -14
-17 -4 9 12 27 19 34 19 19z m-101 -455 c1 -5 -3 -5 -9 -2 -5 3 -10 16 -9 28
0 21 1 21 9 2 5 -11 9 -24 9 -28z"/>
<path d="M3919 10261 c-68 -65 -151 -149 -184 -187 -33 -37 13 5 103 96 130
130 166 161 173 149 9 -12 10 -12 6 1 -2 8 5 25 16 38 50 55 0 12 -114 -97z"/>
<path d="M4279 10353 c-13 -16 -12 -17 4 -4 9 7 17 15 17 17 0 8 -8 3 -21 -13z"/>
<path d="M4127 10343 c-3 -5 -2 -15 2 -22 7 -10 10 -10 16 -1 4 6 3 16 -3 22
-5 5 -12 6 -15 1z"/>
<path d="M8772 10310 c-38 -35 -29 -64 38 -119 33 -28 69 -55 80 -61 18 -10
18 -12 3 -48 -9 -21 -16 -65 -16 -102 -1 -141 102 -246 252 -259 l65 -6 29
-75 c15 -41 36 -84 46 -95 25 -29 41 -71 41 -108 0 -45 25 -77 59 -77 56 0 65
40 27 117 -14 27 -38 87 -54 133 -17 47 -36 99 -43 116 -12 30 -11 33 23 63
130 114 107 331 -45 425 -67 42 -170 47 -242 13 l-50 -24 -78 64 c-43 35 -86
63 -95 63 -10 0 -28 -9 -40 -20z m446 -159 c47 -24 77 -56 97 -103 20 -49 19
-84 -4 -133 -46 -99 -143 -139 -239 -100 -75 32 -115 90 -115 170 0 28 7 64
16 80 46 90 160 130 245 86z"/>
<path d="M3630 9950 c-23 -27 -40 -50 -37 -50 3 0 24 23 47 50 23 28 40 50 37
50 -3 0 -24 -22 -47 -50z"/>
<path d="M5633 9875 c-29 -13 -53 -27 -53 -30 0 -3 14 2 32 11 17 9 47 22 67
29 20 8 29 14 21 14 -8 1 -39 -10 -67 -24z"/>
<path d="M3569 9873 c-31 -38 -40 -57 -13 -28 15 17 32 29 37 27 4 -1 6 2 2 8
-8 13 -9 13 -26 -7z"/>
<path d="M6810 9886 c0 -2 15 -9 33 -15 29 -10 30 -9 13 4 -18 14 -46 20 -46
11z"/>
<path d="M5549 9823 c-13 -16 -12 -17 4 -4 9 7 17 15 17 17 0 8 -8 3 -21 -13z"/>
<path d="M6962 9795 c15 -17 38 -50 52 -75 14 -25 26 -40 26 -34 0 16 -55 97
-81 119 -21 17 -21 16 3 -10z"/>
<path d="M5503 9778 c-11 -13 -26 -34 -32 -48 -10 -21 -9 -22 1 -6 7 10 24 32
36 47 28 34 24 39 -5 7z"/>
<path d="M7044 9617 c0 -31 2 -43 7 -31 5 14 8 9 12 -21 2 -23 3 -16 2 17 -4
75 -20 103 -21 35z"/>
<path d="M5431 9644 c0 -11 3 -14 6 -6 3 7 2 16 -1 19 -3 4 -6 -2 -5 -13z"/>
<path d="M5416 9589 c-3 -17 -6 -232 -6 -478 l0 -446 318 -315 317 -315 -313
316 -313 315 3 477 c2 262 2 477 2 477 -1 0 -4 -14 -8 -31z"/>
<path d="M7062 9012 c-1 -287 -5 -381 -14 -376 -7 4 -8 3 -4 -5 4 -6 2 -20 -5
-29 -8 -10 -4 -9 9 3 l22 21 -3 384 -2 385 -3 -383z"/>
<path d="M9500 9343 c-13 -9 -96 -58 -184 -108 l-161 -91 -2 -234 c-2 -129 0
-240 5 -246 7 -12 339 -200 377 -214 12 -5 22 -14 22 -22 1 -32 34 -406 38
-429 3 -23 -2 -30 -43 -51 -71 -36 -105 -92 -110 -178 -5 -86 21 -149 79 -189
21 -14 38 -32 39 -40 0 -7 -12 -60 -26 -117 -22 -91 -24 -109 -13 -139 7 -20
16 -34 19 -32 3 1 17 9 31 16 34 17 43 38 63 142 21 105 31 129 54 129 10 0
42 12 71 26 77 39 111 95 111 183 -1 108 -39 170 -131 210 l-45 20 -18 173
c-33 313 -34 333 -30 340 3 4 68 42 145 84 77 42 144 85 149 95 6 10 10 116
10 237 0 196 -2 220 -17 234 -35 30 -370 218 -389 218 -11 0 -30 -8 -44 -17z
m210 -168 l145 -84 2 -188 3 -188 -157 -88 -156 -88 -111 62 c-61 34 -131 74
-156 89 l-45 26 -3 186 -2 185 152 86 c84 48 160 87 168 87 8 -1 80 -39 160
-85z m18 -1295 c18 -11 41 -34 52 -52 40 -66 17 -155 -52 -199 -46 -28 -128
-22 -164 12 -55 52 -68 115 -36 179 37 74 131 102 200 60z"/>
<path d="M7042 9280 c0 -14 2 -19 5 -12 2 6 2 18 0 25 -3 6 -5 1 -5 -13z"/>
<path d="M7021 9204 c0 -11 3 -14 6 -6 3 7 2 16 -1 19 -3 4 -6 -2 -5 -13z"/>
<path d="M7041 9204 c0 -11 3 -14 6 -6 3 7 2 16 -1 19 -3 4 -6 -2 -5 -13z"/>
<path d="M3176 9076 c3 -9 -3 -17 -15 -21 -12 -3 -21 -12 -21 -20 0 -15 27
-28 41 -19 12 7 12 74 -1 74 -5 0 -7 -6 -4 -14z"/>
<path d="M3158 8979 c-10 -10 -13 -19 -7 -19 11 0 39 24 39 34 0 11 -15 4 -32
-15z"/>
<path d="M3190 8856 c-6 -20 -16 -34 -21 -31 -5 4 -6 -1 -3 -9 3 -8 -4 -45
-15 -84 -35 -117 -21 -94 19 33 22 65 37 121 36 123 -2 2 -9 -13 -16 -32z"/>
<path d="M2982 8693 c-12 -43 -24 -91 -27 -108 l-6 -30 14 30 13 30 15 -33 c7
-17 20 -32 26 -32 18 0 16 27 -2 34 -8 3 -15 15 -15 26 0 12 -4 18 -10 15 -14
-8 -13 7 6 77 8 33 13 62 11 65 -3 2 -14 -31 -25 -74z"/>
<path d="M6980 8673 c0 -8 4 -12 9 -9 5 4 11 0 14 -6 2 -7 7 -10 11 -7 10 10
-4 36 -19 36 -8 0 -15 -7 -15 -14z"/>
<path d="M3095 8623 c-13 -34 -16 -65 -5 -58 14 9 13 -6 -10 -109 -11 -50 -20
-97 -19 -105 0 -9 16 49 34 129 37 158 41 184 19 130 l-14 -35 5 33 c5 35 1
42 -10 15z"/>
<path d="M4416 8604 c-26 -9 -46 -17 -43 -20 2 -2 17 1 33 8 20 9 122 14 339
18 l310 6 -295 1 c-236 1 -305 -1 -344 -13z"/>
<path d="M5112 8613 l48 -4 3 -862 2 -862 3 868 2 867 -52 -2 -53 -2 47 -3z"/>
<path d="M7330 7750 l0 -871 363 3 c401 4 406 5 499 73 65 48 114 117 138 195
20 63 21 87 18 620 -3 554 -3 555 -26 612 -33 81 -108 160 -190 200 l-67 33
-367 3 -368 3 0 -871z"/>
<path d="M3045 8600 c3 -5 10 -10 16 -10 5 0 9 5 9 10 0 6 -7 10 -16 10 -8 0
-12 -4 -9 -10z"/>
<path d="M6897 8584 c-3 -3 -3 -12 0 -20 6 -17 -1 -18 -27 -4 -15 8 -18 6 -15
-8 2 -9 4 -20 4 -23 1 -4 15 -12 32 -19 l30 -13 -43 -44 c-43 -43 -43 -44 -60
-23 -9 11 -21 20 -28 20 -6 0 -8 5 -4 12 4 7 3 8 -5 4 -9 -6 -9 -11 -1 -21 7
-8 9 -23 5 -35 -6 -20 9 -28 20 -10 3 6 11 10 17 10 7 0 -1 -15 -17 -32 -16
-18 12 7 62 56 51 49 89 94 86 99 -3 6 -1 7 4 4 6 -4 19 3 29 16 10 12 12 17
5 10 -10 -8 -20 -9 -33 -2 -10 5 -18 7 -18 3 0 -4 -8 0 -18 9 -10 10 -21 14
-25 11z"/>
<path d="M4263 8514 c-26 -25 -43 -43 -36 -40 6 4 14 2 18 -4 8 -13 35 -13 35
1 0 6 7 17 15 26 8 8 13 19 9 24 -3 6 0 16 6 24 25 30 1 14 -47 -31z"/>
<path d="M2931 8488 c-29 -137 -62 -428 -59 -517 1 -42 2 -47 5 -18 2 20 8 37
12 37 5 0 6 30 4 68 -3 37 2 121 11 187 9 65 16 123 16 128 0 4 4 6 9 2 5 -3
12 -1 16 5 3 5 1 10 -6 10 -7 0 -5 6 6 13 11 9 15 19 10 27 -6 10 -9 9 -17 -1
-7 -10 -8 -9 -4 6 8 34 19 115 14 115 -2 0 -10 -28 -17 -62z"/>
<path d="M6740 8431 c0 -5 7 -12 16 -15 24 -9 28 -7 14 9 -14 17 -30 20 -30 6z"/>
<path d="M4166 8375 c-9 -26 -7 -32 5 -12 6 10 9 21 6 23 -2 3 -7 -2 -11 -11z"/>
<path d="M3044 8270 c-4 -34 -10 -56 -14 -50 -5 9 -10 6 -15 -9 -3 -11 -9 -21
-13 -21 -4 0 -15 -7 -25 -15 -21 -16 -15 -55 9 -55 8 0 14 -7 14 -16 0 -8 5
-12 10 -9 7 5 10 -22 8 -82 -2 -64 -6 -87 -15 -85 -7 1 -13 -1 -14 -5 0 -5 -2
-20 -3 -36 -2 -32 -48 -79 -69 -71 -8 3 -18 1 -22 -5 -3 -6 -15 -11 -25 -11
-17 0 -18 4 -10 26 6 16 6 23 0 19 -18 -11 -22 -72 -6 -103 19 -37 41 -47 43
-20 3 33 32 58 62 52 19 -4 33 2 54 21 l27 26 0 -35 c0 -25 -4 -34 -13 -30
-18 6 -41 -21 -34 -40 4 -9 -1 -17 -11 -19 -15 -4 -15 -5 -1 -6 9 0 29 11 43
26 25 25 27 31 20 78 -11 81 -8 343 6 438 7 48 10 91 7 94 -3 3 -9 -23 -13
-57z m-17 -132 c-2 -13 -4 -3 -4 22 0 25 2 35 4 23 2 -13 2 -33 0 -45z"/>
<path d="M6665 8280 c-3 -5 -4 -14 -1 -18 6 -11 -128 -145 -137 -137 -4 3 -5
2 -2 -2 3 -4 -16 -28 -41 -54 -37 -38 -50 -45 -60 -36 -34 31 -44 37 -58 37
-10 0 -13 -6 -10 -15 4 -8 1 -15 -5 -15 -15 0 -13 -31 4 -54 8 -11 19 -15 27
-11 7 5 -7 -14 -32 -41 -25 -27 45 39 155 146 175 171 207 209 173 210 -4 0
-10 -4 -13 -10z m-235 -264 c0 -2 -8 -10 -17 -17 -16 -13 -17 -12 -4 4 13 16
21 21 21 13z"/>
<path d="M4140 7750 c0 -288 3 -521 6 -518 7 7 6 1029 -1 1036 -3 3 -5 -230
-5 -518z"/>
<path d="M2912 8220 c0 -14 2 -19 5 -12 2 6 2 18 0 25 -3 6 -5 1 -5 -13z"/>
<path d="M5422 7664 c-1 -204 -4 -647 -6 -985 -4 -588 -3 -594 4 -154 4 253 8
681 9 950 2 270 5 484 8 478 3 -10 8 -9 20 2 13 14 21 10 76 -37 l62 -52 -75
78 c-74 76 -75 76 -81 49 -6 -28 -6 -27 -11 7 -3 19 -6 -132 -6 -336z"/>
<path d="M6105 8020 c-4 -6 -1 -17 5 -26 15 -18 42 0 33 22 -6 16 -29 19 -38
4z"/>
<path d="M6677 7656 c-210 -205 -391 -383 -401 -395 -11 -11 -23 -21 -29 -21
-5 0 -68 57 -141 128 -72 70 -154 147 -181 172 l-50 45 44 -47 44 -46 -29 -4
c-16 -2 -27 -7 -24 -13 3 -5 8 -9 13 -8 4 2 7 -4 7 -12 0 -8 7 -15 15 -15 8 0
15 -4 15 -10 0 -19 18 -10 23 11 l6 21 28 -20 c15 -11 46 -38 67 -61 29 -30
34 -39 19 -35 -30 8 -39 -14 -14 -37 25 -23 37 -24 45 -3 5 13 9 14 21 4 7 -6
11 -19 8 -27 -5 -12 -2 -15 9 -11 21 9 39 -11 29 -31 -12 -24 -20 -101 -11
-101 5 0 10 6 13 13 2 6 2 3 0 -8 -14 -77 -13 -213 1 -322 17 -131 20 -195 5
-128 -10 45 -18 108 -19 145 0 20 -2 22 -10 10 -9 -13 -10 -13 -10 0 0 8 -6 4
-13 -10 -11 -21 -11 -27 2 -38 12 -10 13 -15 4 -18 -10 -4 -10 -9 1 -19 8 -8
14 -37 15 -69 1 -54 0 -56 -26 -56 -14 0 -24 -3 -20 -6 3 -4 0 -19 -8 -35 -12
-23 -13 -30 -1 -41 11 -11 11 -16 -1 -27 -8 -7 -12 -16 -8 -19 3 -4 10 0 15 8
7 10 10 11 10 3 0 -7 9 -13 19 -13 21 0 55 -55 44 -73 -3 -6 -1 -7 5 -3 16 9
15 1 -2 -32 -12 -23 -7 -72 7 -72 10 0 13 126 6 248 -2 39 -1 72 2 72 10 0 22
-264 14 -291 -5 -13 -7 -43 -6 -67 1 -27 -3 -41 -9 -37 -6 3 -7 -1 -4 -10 8
-21 -16 -136 -27 -129 -5 3 -6 -1 -4 -9 3 -7 1 -24 -4 -38 -7 -18 -10 -19 -10
-6 -1 26 -42 39 -58 18 -10 -14 -11 -12 -6 9 6 22 5 24 -10 11 -14 -11 -15
-17 -5 -30 7 -9 19 -20 26 -24 7 -5 10 -17 7 -28 -4 -13 -2 -19 8 -19 8 0 17
10 20 22 4 12 9 19 12 16 7 -7 -54 -142 -77 -172 -14 -18 -15 -17 -12 15 2 19
1 28 -2 21 -5 -10 -9 -10 -20 -1 -11 9 -13 9 -9 -2 10 -27 -19 -64 -49 -64
-38 0 -56 -30 -45 -72 5 -17 17 -34 27 -36 9 -3 -41 -5 -113 -5 -71 0 -121 3
-110 7 17 7 17 8 -7 13 -17 3 -25 1 -21 -5 6 -10 -37 -6 -82 7 -11 4 -4 -1 15
-10 51 -25 354 -36 765 -29 362 6 396 11 476 60 55 35 126 120 151 183 l23 57
3 1013 c2 729 -1 1012 -8 1012 -6 0 -183 -168 -393 -374z m-622 -1836 c-3 -5
-12 -10 -18 -10 -7 0 -6 4 3 10 19 12 23 12 15 0z"/>
<path d="M6060 8017 c0 -2 15 -16 33 -33 l32 -29 -29 33 c-28 30 -36 37 -36
29z"/>
<path d="M5053 7979 c1 -14 4 -15 14 -7 9 7 13 7 13 -1 0 -7 5 -9 10 -6 17 11
11 22 -14 27 -19 4 -24 1 -23 -13z"/>
<path d="M5053 7926 c13 -14 26 -20 31 -15 13 12 17 41 5 33 -5 -3 -6 -10 -3
-16 4 -6 1 -8 -7 -6 -8 3 -13 10 -12 15 1 5 -7 9 -17 10 -18 2 -18 0 3 -21z"/>
<path d="M6241 7924 c-12 -15 -21 -31 -21 -36 0 -5 -4 -6 -10 -3 -16 10 -11
-1 7 -16 13 -11 15 -11 9 -1 -6 10 -2 13 15 10 15 -2 23 -9 21 -18 -3 -11 2
-9 17 4 21 19 20 36 -3 36 -9 0 -12 9 -8 25 6 32 -1 32 -27 -1z"/>
<path d="M5642 7813 c7 -10 62 -65 123 -123 l110 -105 -120 123 c-66 67 -121
122 -122 122 -2 0 2 -8 9 -17z"/>
<path d="M5780 7618 c0 -6 3 -8 7 -5 3 4 12 2 20 -5 11 -8 12 -7 7 6 -7 18
-34 22 -34 4z"/>
<path d="M3183 7513 c-50 -40 -50 -143 0 -178 48 -33 187 -3 216 47 9 15 25
29 36 31 18 4 17 4 -2 6 -29 1 -33 47 -5 54 15 4 14 5 -2 6 -11 0 -29 10 -41
21 -31 29 -171 38 -202 13z"/>
<path d="M2731 7458 c-74 -25 -102 -58 -94 -114 4 -28 1 -34 -14 -34 -11 0
-24 -5 -31 -12 -19 -19 -21 -6 -7 35 7 20 11 37 9 37 -35 0 -118 -68 -143
-119 -27 -52 -41 -138 -32 -191 l8 -45 2 52 c1 50 1 51 31 49 25 -2 32 2 36
23 3 14 8 33 10 42 4 14 -2 17 -31 15 -19 -1 -35 0 -35 2 0 1 6 18 14 36 11
27 21 35 47 38 19 3 43 9 54 13 15 7 12 -1 -12 -28 -47 -53 -41 -54 11 -3 50
51 82 60 113 33 16 -15 39 -19 101 -20 71 -2 83 1 105 21 33 32 42 83 22 126
-28 59 -78 72 -164 44z"/>
<path d="M3480 7474 c0 -2 9 -8 20 -12 19 -7 19 -8 -5 -34 l-24 -26 30 -12
c16 -7 45 -31 64 -53 19 -22 35 -37 35 -34 0 4 -19 28 -42 52 -23 26 -33 42
-23 39 13 -5 16 -4 11 4 -4 7 -2 12 4 12 7 0 9 7 6 16 -6 15 -4 15 20 -1 15
-9 23 -12 20 -6 -11 17 -116 68 -116 55z"/>
<path d="M5860 7441 c0 -7 -4 -10 -9 -7 -14 9 -7 -22 9 -37 10 -10 12 -9 7 6
-8 21 -3 22 16 2 13 -13 16 -12 22 2 3 10 3 14 -1 10 -4 -3 -15 3 -25 15 -11
11 -19 16 -19 9z"/>
<path d="M3645 7345 c9 -22 21 -44 27 -50 5 -5 2 8 -7 30 -9 22 -21 45 -26 50
-6 6 -3 -8 6 -30z"/>
<path d="M5960 7337 c0 -9 -6 -17 -14 -17 -9 0 -12 -8 -8 -25 2 -14 9 -25 14
-25 6 0 6 -6 -1 -14 -9 -11 -9 -16 0 -22 7 -4 9 -3 5 4 -3 6 -1 14 5 18 6 3
15 1 19 -6 4 -6 10 -11 14 -11 19 3 26 0 26 -10 0 -6 -6 -9 -13 -6 -7 3 -13
-3 -14 -14 -1 -16 2 -16 23 -7 27 13 47 2 24 -12 -9 -6 -10 -10 -3 -10 24 0
25 22 2 46 -22 24 -23 26 -6 35 9 6 17 15 17 20 0 6 -4 7 -10 4 -5 -3 -10 -1
-10 6 0 7 -3 10 -6 6 -3 -3 -19 8 -35 26 -22 24 -29 27 -29 14z m35 -38 c-3
-4 -13 -6 -23 -3 -14 5 -15 4 -2 -5 8 -5 11 -13 7 -18 -13 -12 -27 20 -16 34
11 13 42 6 34 -8z"/>
<path d="M9502 7220 c-27 -11 -43 -48 -68 -152 l-18 -78 -131 -75 c-73 -41
-137 -81 -143 -88 -7 -8 -13 -69 -14 -151 l-3 -138 -60 -24 c-33 -13 -67 -32
-75 -43 -21 -24 -57 -43 -100 -52 -19 -4 -62 -17 -95 -29 l-60 -23 -39 26
c-49 34 -97 43 -149 27 -139 -41 -155 -241 -24 -300 54 -25 91 -25 143 1 49
23 80 67 90 125 6 39 9 42 83 77 42 21 89 45 105 53 15 9 45 17 65 18 20 1 62
12 94 25 l57 23 45 -26 c25 -15 45 -31 45 -37 0 -14 -70 -152 -136 -265 -305
-530 -740 -945 -1273 -1215 -247 -126 -511 -216 -771 -263 -229 -42 -324 -49
-578 -43 -250 5 -405 24 -567 68 -132 36 -150 36 -186 0 -27 -28 -31 -37 -26
-68 9 -51 41 -81 96 -89 25 -3 93 -17 151 -30 322 -70 711 -79 1060 -23 987
158 1856 803 2314 1716 62 126 65 130 93 126 22 -4 61 13 161 69 73 41 142 82
152 91 18 15 20 30 20 190 0 202 13 176 -135 261 -55 32 -101 59 -102 60 -2 2
9 36 23 77 30 86 32 143 8 170 -19 21 -20 21 -52 9z m63 -374 l110 -64 0 -138
0 -138 -110 -63 c-60 -35 -116 -63 -123 -63 -7 0 -62 28 -122 63 l-110 62 3
139 2 140 110 63 c61 34 115 62 120 62 6 0 60 -28 120 -63z m-899 -510 c26
-26 34 -42 34 -71 0 -29 -8 -45 -34 -71 -26 -26 -42 -34 -71 -34 -29 0 -45 8
-71 34 -69 69 -24 175 75 176 24 0 42 -9 67 -34z"/>
<path d="M3622 7200 c0 -14 2 -19 5 -12 2 6 2 18 0 25 -3 6 -5 1 -5 -13z"/>
<path d="M3677 7189 c-3 -12 0 -28 9 -36 12 -13 14 -10 14 21 0 39 -14 48 -23
15z"/>
<path d="M5941 7184 c0 -11 3 -14 6 -6 3 7 2 16 -1 19 -3 4 -6 -2 -5 -13z"/>
<path d="M3632 7130 c0 -19 2 -27 5 -17 2 9 2 25 0 35 -3 9 -5 1 -5 -18z"/>
<path d="M6121 7097 c1 -23 8 -54 15 -68 17 -33 1 -53 -29 -38 -14 8 -18 8
-13 0 4 -6 2 -11 -3 -11 -8 0 -7 -7 1 -19 7 -11 16 -17 20 -15 4 3 8 -1 8 -9
0 -7 -7 -14 -15 -14 -8 0 -12 4 -9 9 3 4 0 8 -6 8 -6 0 -9 4 -6 9 3 5 0 11 -7
14 -7 3 -13 -3 -13 -13 0 -10 3 -17 7 -15 3 3 11 -7 17 -20 7 -14 17 -25 23
-25 8 0 8 -4 0 -14 -8 -10 -9 -16 -1 -21 5 -3 10 -1 10 4 0 6 11 11 25 11 14
0 25 3 26 8 9 69 12 203 4 206 -6 3 -3 9 5 15 13 10 13 12 0 20 -10 7 -17 6
-22 -2 -5 -9 -8 -9 -8 -1 0 7 -7 15 -16 18 -13 5 -15 -1 -13 -37z"/>
<path d="M6087 7087 c-3 -8 1 -14 9 -14 8 0 14 6 14 14 0 7 -4 13 -9 13 -5 0
-11 -6 -14 -13z"/>
<path d="M5130 7065 c0 -8 -3 -15 -7 -15 -5 0 -8 -18 -8 -40 0 -31 4 -40 18
-40 14 0 17 9 17 55 0 30 -4 55 -10 55 -5 0 -10 -7 -10 -15z"/>
<path d="M2486 7007 c-4 -32 -5 -61 -2 -65 3 -3 6 6 7 19 l1 24 8 -25 8 -25 0
25 c1 14 -3 43 -7 65 l-7 40 -8 -58z"/>
<path d="M4242 7036 l11 -21 -24 20 c-13 11 -4 -2 21 -28 41 -44 73 -68 37
-29 -12 14 -14 21 -6 29 17 17 4 40 -25 45 -23 5 -24 3 -14 -16z"/>
<path d="M3711 7024 c0 -11 3 -14 6 -6 3 7 2 16 -1 19 -3 4 -6 -2 -5 -13z"/>
<path d="M5443 6970 c0 -41 2 -58 4 -37 2 20 2 54 0 75 -2 20 -4 3 -4 -38z"/>
<path d="M6085 7030 c4 -6 11 -8 16 -5 14 9 11 15 -7 15 -8 0 -12 -5 -9 -10z"/>
<path d="M3722 6975 c0 -16 2 -22 5 -12 2 9 2 23 0 30 -3 6 -5 -1 -5 -18z"/>
<path d="M4591 6974 c0 -11 3 -14 6 -6 3 7 2 16 -1 19 -3 4 -6 -2 -5 -13z"/>
<path d="M4375 6953 c-9 -8 -22 -12 -31 -9 -8 3 -13 2 -10 -3 7 -11 94 -41
115 -40 9 0 0 6 -19 12 -24 7 -29 12 -17 14 24 6 22 38 -3 40 -11 1 -27 -5
-35 -14z"/>
<path d="M3662 6900 c0 -19 2 -27 5 -17 2 9 2 25 0 35 -3 9 -5 1 -5 -18z"/>
<path d="M2512 6900 c0 -14 2 -19 5 -12 2 6 2 18 0 25 -3 6 -5 1 -5 -13z"/>
<path d="M4698 6913 c7 -3 16 -2 19 1 4 3 -2 6 -13 5 -11 0 -14 -3 -6 -6z"/>
<path d="M4638 6893 c94 -2 250 -2 345 0 94 1 17 3 -173 3 -190 0 -267 -2
-172 -3z"/>
<path d="M3732 6840 c0 -14 2 -19 5 -12 2 6 2 18 0 25 -3 6 -5 1 -5 -13z"/>
<path d="M2527 6795 c6 -64 21 -126 22 -90 0 11 -6 49 -14 85 l-14 65 6 -60z"/>
<path d="M3672 6795 c0 -16 2 -22 5 -12 2 9 2 23 0 30 -3 6 -5 -1 -5 -18z"/>
<path d="M6004 6798 c-4 -6 -3 -8 4 -4 6 3 13 -2 15 -11 4 -14 5 -13 6 5 1 23
-13 30 -25 10z"/>
<path d="M6034 6762 c-9 -5 -8 -11 2 -20 12 -11 14 -9 14 8 0 22 0 23 -16 12z"/>
<path d="M3682 6694 c-1 -35 -8 -56 -20 -68 -16 -14 -20 -38 -25 -149 -14
-286 -101 -458 -275 -540 -62 -29 -75 -32 -167 -32 -80 1 -111 5 -157 24 -165
65 -298 234 -368 469 -18 58 -28 75 -50 87 -16 8 -31 23 -33 32 -4 14 -5 13
-6 -4 0 -13 -5 -23 -10 -23 -5 0 -17 -3 -27 -7 -15 -6 -16 -1 -12 35 5 34 2
46 -19 69 -27 31 -27 33 -3 -60 11 -42 11 -50 -5 -67 -25 -27 -17 -72 37 -205
127 -317 330 -489 615 -520 l62 -7 25 -76 c26 -78 150 -342 161 -342 3 0 1 9
-5 19 -14 26 2 64 44 112 26 28 37 34 46 25 14 -14 1 24 -31 86 -21 41 -81
210 -76 213 1 1 33 16 71 33 93 44 199 150 251 251 59 117 86 239 92 417 l6
152 -26 17 c-14 9 -28 29 -30 43 l-4 27 -2 -26 c-1 -20 -7 -28 -26 -31 -23 -5
-24 -2 -28 46 l-3 51 -2 -51z m-248 -1120 c5 -18 0 -25 -29 -38 -19 -9 -35
-23 -35 -30 0 -8 -7 -17 -16 -20 -10 -4 -13 -13 -9 -28 3 -13 -6 -3 -19 22
-25 46 -32 71 -18 69 25 -4 44 5 73 36 34 36 39 35 53 -11z m-44 -208 c0 -12
-5 -7 -19 24 -11 24 -11 24 3 6 9 -11 16 -24 16 -30z"/>
<path d="M2476 6700 c8 -43 14 -51 14 -19 0 13 -5 31 -10 39 -7 11 -8 5 -4
-20z"/>
<path d="M2552 6665 c0 -11 4 -33 8 -50 7 -27 8 -27 8 -5 0 14 -4 36 -8 50 -6
20 -8 21 -8 5z"/>
<path d="M5433 6580 c0 -25 2 -35 4 -22 2 12 2 32 0 45 -2 12 -4 2 -4 -23z"/>
<path d="M2572 6560 c0 -14 2 -19 5 -12 2 6 2 18 0 25 -3 6 -5 1 -5 -13z"/>
<path d="M6136 6467 c3 -10 9 -15 12 -12 3 3 0 11 -7 18 -10 9 -11 8 -5 -6z"/>
<path d="M6200 6296 c0 -8 5 -18 10 -21 6 -3 10 3 10 14 0 12 -4 21 -10 21 -5
0 -10 -6 -10 -14z"/>
<path d="M5433 6205 c0 -27 2 -38 4 -22 2 15 2 37 0 50 -2 12 -4 0 -4 -28z"/>
<path d="M6182 6162 c-1 -27 1 -33 8 -22 12 19 13 47 2 54 -5 3 -9 -11 -10
-32z"/>
<path d="M5478 5878 c9 -16 34 -45 56 -66 22 -20 34 -30 28 -20 -9 11 -10 18
-2 23 15 9 12 45 -4 45 -7 0 -24 11 -38 23 -14 13 -33 24 -41 24 -15 0 -14 -3
1 -29z m51 -44 c9 -11 1 -5 -16 15 -18 19 -33 39 -33 45 0 6 7 -1 17 -14 9
-14 23 -34 32 -46z"/>
<path d="M5957 5870 c-3 -11 -2 -20 3 -20 12 0 21 28 11 35 -5 2 -11 -4 -14
-15z"/>
<path d="M5800 5762 c0 -10 35 -31 53 -32 35 0 15 34 -21 36 -17 1 -32 -1 -32
-4z"/>
<path d="M3529 5394 c7 -14 7 -33 1 -54 -14 -49 20 -86 36 -38 l6 21 20 -24
c15 -18 14 -14 -4 17 -27 47 -74 109 -59 78z"/>
<path d="M5058 5311 c-80 -26 -136 -61 -192 -120 -84 -90 -128 -230 -108 -342
6 -30 8 -57 6 -61 -9 -14 -111 -28 -212 -28 -124 0 -258 25 -353 65 -35 15
-77 28 -94 29 -16 2 -40 8 -51 14 -12 6 -23 10 -25 8 -2 -2 -15 8 -29 21 -23
22 -19 22 33 -7 32 -18 61 -30 64 -26 4 3 2 6 -4 6 -5 0 -50 25 -99 56 -48 30
-80 46 -70 35 11 -12 14 -21 9 -21 -14 0 -25 -73 -12 -80 11 -7 -8 -60 -21
-60 -5 0 -18 9 -31 19 -23 18 -23 20 -6 39 10 10 15 26 12 35 -8 20 -69 31
-96 16 -19 -10 -27 -6 -64 31 -29 29 -41 48 -38 61 5 17 -9 25 -39 20 -11 -1
-118 121 -117 133 4 38 -2 57 -18 54 -10 -1 -25 2 -33 7 -18 11 30 -56 106
-147 185 -223 480 -402 756 -459 88 -18 125 -20 253 -16 92 4 172 12 208 22
l58 16 37 -36 c20 -20 64 -49 97 -66 301 -148 642 88 610 423 -14 141 -113
277 -247 338 -90 42 -199 49 -290 21z m-1547 -133 c11 -21 11 -22 -4 -9 -10 7
-17 17 -17 22 0 15 9 10 21 -13z m1796 -6 c103 -53 163 -152 163 -267 0 -115
-51 -200 -158 -263 -42 -24 -57 -27 -137 -27 -69 0 -98 4 -125 19 -68 37 -109
77 -139 138 -78 155 -7 345 152 408 69 27 183 23 244 -8z m-1646 -169 c13 -16
12 -17 -3 -4 -10 7 -18 15 -18 17 0 8 8 3 21 -13z"/>
<path d="M5131 5080 c-104 -25 -166 -146 -123 -241 26 -59 61 -89 121 -105
172 -44 298 151 185 286 -45 53 -115 76 -183 60z"/>
<path d="M3675 5192 c11 -14 18 -35 17 -53 -1 -16 3 -29 9 -29 7 0 9 9 6 21
-5 20 -5 20 15 2 20 -18 21 -18 10 2 -6 11 -25 34 -43 50 -20 17 -26 20 -14 7z"/>
<path d="M3815 5050 c17 -20 18 -23 3 -17 -14 5 -18 1 -18 -19 0 -32 27 -42
45 -18 13 18 14 18 34 0 12 -11 21 -17 21 -14 0 3 -24 24 -52 48 -29 24 -44
33 -33 20z"/>
<path d="M5690 3724 c-108 -29 -190 -106 -224 -212 -25 -73 -24 -498 0 -569
32 -94 86 -152 181 -195 45 -21 65 -23 322 -26 l274 -3 53 52 c46 45 54 59 54
90 0 24 -5 39 -16 43 -9 3 -142 6 -297 6 -273 0 -283 1 -321 23 -72 41 -77 62
-74 304 3 236 5 241 79 291 34 23 36 24 288 21 l254 -3 44 48 c40 45 44 53 41
95 l-3 46 -300 2 c-237 1 -311 -1 -355 -13z"/>
<path d="M6596 3725 c-8 -22 -8 -933 0 -974 l7 -32 91 3 91 3 3 173 2 172 133
0 132 -1 85 -135 c47 -75 97 -153 113 -175 l27 -39 105 0 c61 0 105 4 105 10
0 5 -48 82 -106 172 -58 89 -108 167 -110 173 -2 5 16 18 40 28 57 23 113 79
139 136 29 63 35 217 13 293 -21 72 -87 147 -158 179 -52 23 -60 24 -379 27
-295 3 -327 2 -333 -13z m649 -208 c57 -57 59 -171 4 -227 -38 -37 -71 -42
-284 -38 l-170 3 -3 148 -3 147 212 0 211 0 33 -33z"/>
<path d="M7712 3348 c3 -377 4 -395 24 -439 31 -67 87 -124 152 -156 l57 -28
220 0 220 0 67 33 c75 37 110 72 147 152 l26 55 3 388 3 387 -96 0 -95 0 0
-337 c0 -186 -5 -356 -10 -377 -5 -23 -23 -54 -44 -75 l-36 -36 -173 -3 c-199
-3 -223 4 -257 81 -18 39 -20 69 -20 395 l0 352 -95 0 -96 0 3 -392z"/>
<path d="M9067 3729 c-87 -21 -161 -81 -195 -158 -22 -50 -22 -213 0 -262 25
-57 83 -114 141 -140 47 -21 71 -24 257 -29 226 -6 238 -9 266 -69 23 -47 13
-99 -26 -133 l-30 -28 -294 0 c-340 0 -322 6 -325 -100 -1 -36 3 -71 7 -78 7
-11 75 -13 338 -10 322 3 330 4 376 26 111 55 164 156 156 296 -7 121 -52 192
-158 247 -42 22 -60 24 -252 29 -189 5 -209 7 -235 26 -62 46 -68 131 -11 179
l30 25 281 0 c155 0 288 4 295 9 9 5 12 31 10 92 l-3 84 -295 2 c-162 0 -312
-3 -333 -8z"/>
<path d="M9977 3733 c-4 -3 -7 -233 -7 -510 l0 -503 94 0 c86 0 95 2 101 20 3
11 5 104 3 207 l-3 188 253 3 252 2 0 -210 0 -210 95 0 95 0 2 495 c0 272 1
501 2 508 1 9 -26 13 -96 15 l-98 3 0 -211 0 -210 -252 2 -253 3 -1 180 c0 99
-1 192 -2 208 l-2 27 -88 0 c-49 0 -92 -3 -95 -7z"/>
<path d="M1830 3721 c0 -4 11 -6 25 -3 14 2 25 6 25 8 0 2 -11 4 -25 4 -14 0
-25 -4 -25 -9z"/>
<path d="M1933 3723 c9 -2 17 -9 17 -14 0 -5 7 -9 15 -9 8 0 15 4 15 9 0 5 12
12 28 14 15 2 0 4 -33 4 -33 1 -52 -1 -42 -4z"/>
<path d="M2688 3668 c-25 -35 -64 -92 -88 -128 l-44 -65 36 30 c69 58 99 80
109 78 5 -2 9 9 10 25 0 23 1 24 8 7 l8 -20 5 20 c2 11 -2 30 -10 43 -13 19
-12 25 2 47 33 51 6 23 -36 -37z"/>
<path d="M2813 3723 c9 -2 17 -11 17 -19 0 -8 9 -14 20 -14 13 0 17 5 14 14
-4 10 3 16 23 19 15 2 1 4 -32 4 -33 1 -52 -1 -42 -4z"/>
<path d="M3230 3230 l0 -500 393 2 392 3 -340 5 c-187 3 -326 7 -310 8 l30 2
-25 14 c-15 8 -31 10 -42 4 -33 -16 -57 -9 -65 20 l-7 27 -7 -25 c-4 -14 -7
191 -7 455 0 276 3 472 8 460 7 -17 9 -17 9 -3 1 16 17 18 149 21 l147 3 -162
2 -163 2 0 -500z"/>
<path d="M3638 3723 c45 -2 119 -2 165 0 45 1 8 3 -83 3 -91 0 -128 -2 -82 -3z"/>
<path d="M3966 3724 c23 -5 34 -38 34 -97 0 -22 3 -28 11 -20 5 5 9 34 7 64
l-3 54 -35 2 c-19 0 -25 -1 -14 -3z"/>
<path d="M4281 3648 l-1 -88 283 0 c155 0 293 -2 307 -5 14 -3 7 2 -15 9 -22
8 -31 15 -21 15 14 1 17 4 9 12 -6 6 -29 7 -64 2 -53 -7 -53 -7 -19 -14 19 -3
-73 -7 -204 -8 -132 0 -236 2 -233 6 4 3 2 12 -4 20 -6 7 -8 13 -5 13 4 0 1
10 -6 23 -6 12 -15 40 -19 62 -5 30 -7 19 -8 -47z"/>
<path d="M4493 3723 c53 -2 141 -2 195 0 53 1 9 3 -98 3 -107 0 -151 -2 -97
-3z"/>
<path d="M4848 3723 c6 -2 18 -2 25 0 6 3 1 5 -13 5 -14 0 -19 -2 -12 -5z"/>
<path d="M2920 3468 c-1 -134 -1 -352 0 -485 0 -134 -3 -243 -8 -243 -17 0
-32 25 -32 52 0 22 -4 28 -23 28 -27 0 -57 -32 -57 -60 0 -25 -37 -27 -42 -2
-3 14 -5 13 -10 -5 -6 -23 -5 -23 88 -23 l94 0 0 490 c0 270 -2 490 -5 490 -3
0 -5 -109 -5 -242z"/>
<path d="M3290 3693 c0 -15 57 -18 79 -4 10 7 6 10 -15 14 -44 8 -64 5 -64
-10z"/>
<path d="M4993 3693 c4 -3 3 -11 -2 -17 -11 -13 6 -40 29 -48 8 -3 23 2 33 10
16 14 20 13 50 -14 l32 -29 -30 33 c-16 19 -47 42 -67 53 -37 19 -57 25 -45
12z"/>
<path d="M3345 3654 c9 -9 23 -13 32 -9 15 5 15 7 3 15 -8 6 -23 10 -33 10
-17 0 -17 -1 -2 -16z"/>
<path d="M1832 3580 c0 -19 2 -27 5 -17 2 9 2 25 0 35 -3 9 -5 1 -5 -18z"/>
<path d="M3963 3595 c-10 -11 -10 -15 0 -18 7 -3 -96 -5 -228 -5 -132 0 -224
4 -205 8 35 7 26 11 -30 14 -37 1 -77 -11 -45 -14 14 -2 11 -5 -10 -10 -16 -4
104 -8 267 -9 163 0 299 3 302 7 3 5 -4 16 -15 25 -23 20 -21 20 -36 2z"/>
<path d="M1850 3579 c0 -11 5 -17 10 -14 6 3 10 13 10 21 0 8 -4 14 -10 14 -5
0 -10 -9 -10 -21z"/>
<path d="M2114 3592 c4 -7 3 -19 -4 -26 -16 -20 -31 -78 -18 -70 6 4 8 -1 3
-15 -5 -18 -2 -21 22 -21 15 0 38 8 50 18 l23 17 -35 49 c-34 48 -55 73 -41
48z"/>
<path d="M4378 3583 c7 -3 16 -2 19 1 4 3 -2 6 -13 5 -11 0 -14 -3 -6 -6z"/>
<path d="M5141 3536 c-8 -14 -19 -26 -25 -26 -17 0 28 -29 46 -30 9 0 19 -8
21 -17 4 -15 5 -15 6 2 0 11 -7 37 -17 59 l-17 38 -14 -26z"/>
<path d="M3400 3529 c0 -11 -4 -18 -9 -15 -4 3 -16 0 -26 -8 -22 -16 -12 -56
15 -56 11 0 20 -9 23 -22 2 -13 5 10 6 50 0 39 -1 72 -4 72 -3 0 -5 -9 -5 -21z"/>
<path d="M4915 3538 c11 -6 35 -25 54 -42 l35 -31 -19 30 -18 30 21 -19 c22
-19 22 -19 22 4 0 19 -4 22 -27 17 -17 -3 -36 0 -47 9 -11 8 -25 14 -30 14 -6
0 -2 -6 9 -12z"/>
<path d="M2805 3499 c-11 -17 1 -21 15 -4 8 9 8 15 2 15 -6 0 -14 -5 -17 -11z"/>
<path d="M2740 3445 c0 -14 -4 -25 -9 -25 -5 0 -19 -16 -31 -36 -12 -19 -25
-33 -28 -30 -3 3 3 15 13 26 10 11 15 23 11 27 -12 12 -41 -13 -39 -33 1 -11
0 -13 -3 -6 -8 17 -33 15 -40 -2 -3 -8 -12 -12 -21 -9 -11 5 -14 1 -10 -13 3
-10 9 -31 13 -46 3 -16 10 -28 15 -28 5 0 2 -12 -7 -27 -16 -27 -16 -27 9 2
15 17 24 36 22 43 -3 7 -1 11 4 8 5 -3 26 21 47 54 21 32 47 61 56 63 14 4 16
1 9 -12 -6 -10 -6 -23 0 -32 7 -11 9 -11 9 4 0 11 10 27 22 37 18 14 20 21 10
32 -6 8 -10 17 -7 19 2 3 -7 6 -20 7 -20 1 -25 -3 -25 -23z m-84 -123 c-18
-16 -18 -16 -6 6 6 13 14 21 18 18 3 -4 -2 -14 -12 -24z"/>
<path d="M2813 3454 c0 -8 6 -14 14 -14 7 0 13 4 13 9 0 5 -6 11 -13 14 -8 3
-14 -1 -14 -9z"/>
<path d="M2032 3443 c-6 -2 -9 -10 -6 -16 5 -9 4 -9 -6 0 -19 18 -60 -36 -63
-84 -2 -32 1 -38 18 -38 11 0 23 -9 27 -20 3 -11 6 13 7 53 1 41 5 72 11 72 6
0 10 -3 10 -7 1 -5 12 -21 26 -38 14 -16 22 -21 16 -11 -7 13 -6 27 0 42 8 18
7 26 -5 38 -9 9 -17 16 -19 15 -2 0 -9 -3 -16 -6z"/>
<path d="M2245 3397 c14 -22 13 -25 -20 -56 -19 -18 -33 -37 -29 -42 3 -5 -6
-13 -20 -19 -14 -5 -26 -14 -26 -20 0 -6 -5 -8 -12 -4 -6 4 3 -14 21 -39 18
-26 35 -47 38 -47 3 0 0 6 -6 14 -9 10 -8 16 4 26 18 15 20 47 3 53 -10 4 -10
7 0 18 10 10 15 11 20 2 5 -8 13 -9 22 -3 8 6 25 10 38 10 12 0 22 5 22 11 0
6 9 1 21 -12 11 -13 -3 11 -31 54 -28 42 -53 77 -56 77 -2 0 2 -10 11 -23z"/>
<path d="M3252 3400 c0 -14 2 -19 5 -12 2 6 2 18 0 25 -3 6 -5 1 -5 -13z"/>
<path d="M2459 3333 c-68 -97 -75 -108 -60 -99 6 4 32 39 58 79 65 97 65 97
60 97 -3 0 -29 -35 -58 -77z"/>
<path d="M5190 3318 c0 -51 -4 -87 -8 -81 -6 9 -14 -1 -27 -30 -28 -62 -27
-88 7 -101 21 -8 28 -18 31 -46 2 -19 4 52 5 158 1 105 0 192 -3 192 -3 0 -5
-42 -5 -92z"/>
<path d="M5024 3290 c0 -52 1 -74 3 -47 2 26 2 68 0 95 -2 26 -3 4 -3 -48z"/>
<path d="M2507 3363 c-10 -9 -9 -23 1 -23 5 0 9 7 9 15 0 17 -1 18 -10 8z"/>
<path d="M5130 3340 c0 -5 5 -10 11 -10 5 0 7 5 4 10 -3 6 -8 10 -11 10 -2 0
-4 -4 -4 -10z"/>
<path d="M2835 3319 c-4 -6 -4 -13 0 -17 4 -4 10 -1 12 6 3 6 9 10 14 6 5 -3
9 0 9 5 0 14 -27 14 -35 0z"/>
<path d="M3565 3310 c-18 -8 -17 -9 8 -9 15 -1 27 4 27 9 0 12 -8 12 -35 0z"/>
<path d="M1867 3303 c-4 -3 -7 -11 -7 -17 0 -6 5 -5 12 2 6 6 9 14 7 17 -3 3
-9 2 -12 -2z"/>
<path d="M3938 3303 c6 -2 12 -16 12 -30 0 -33 11 -24 14 11 3 21 -1 26 -18
25 -11 0 -15 -3 -8 -6z"/>
<path d="M4364 3303 c13 -4 15 -7 7 -13 -9 -5 -7 -9 7 -12 11 -3 26 -2 33 3
12 7 11 9 -1 10 -8 1 1 5 20 9 30 6 26 7 -25 8 -33 0 -51 -3 -41 -5z"/>
<path d="M3430 3266 c0 -8 -7 -21 -15 -30 -9 -9 -11 -17 -5 -21 5 -3 10 -1 10
5 0 6 5 8 12 4 7 -4 8 -3 4 4 -5 8 1 12 14 12 15 0 20 5 18 17 -4 22 -38 30
-38 9z"/>
<path d="M3390 3260 c0 -5 7 -10 15 -10 8 0 15 5 15 10 0 6 -7 10 -15 10 -8 0
-15 -4 -15 -10z"/>
<path d="M4280 2992 l0 -262 293 2 292 3 -268 2 c-216 3 -272 6 -283 18 -19
18 -33 425 -15 425 16 0 13 31 -4 54 -13 18 -15 -10 -15 -242z"/>
<path d="M2747 3073 c3 -93 7 -170 9 -172 2 -2 4 53 4 123 0 82 4 125 10 121
6 -3 10 4 10 17 0 27 -21 78 -32 78 -4 0 -5 -75 -1 -167z"/>
<path d="M2363 3215 c0 -7 6 -11 14 -8 7 3 13 6 13 8 0 2 -6 5 -13 8 -8 3 -14
-1 -14 -8z"/>
<path d="M2000 3164 c0 -21 -4 -33 -10 -29 -6 4 -9 -12 -8 -42 l1 -48 6 40 c3
22 8 -36 11 -130 l6 -170 2 208 c1 114 0 207 -3 207 -3 0 -5 -16 -5 -36z"/>
<path d="M3453 3183 c0 -7 11 -13 25 -13 14 0 22 5 20 12 -6 16 -45 17 -45 1z"/>
<path d="M5019 3108 c-8 -103 -28 -142 -90 -178 -24 -13 -70 -27 -103 -31
l-61 -7 75 1 c41 1 88 -3 103 -7 15 -5 27 -4 26 0 -1 5 1 17 6 27 4 10 5 20 2
23 -3 3 5 21 18 40 25 37 39 112 33 179 -2 26 -5 8 -9 -47z"/>
<path d="M3362 3171 c-8 -4 -13 -12 -13 -17 0 -5 -2 -17 -5 -28 -7 -21 3 -33
31 -38 15 -2 22 -13 26 -43 5 -33 6 -29 7 28 l2 67 268 0 c155 0 273 4 282 10
13 8 12 10 -2 10 -10 0 -18 6 -18 13 0 7 -5 5 -10 -5 -9 -14 -37 -16 -257 -15
-137 0 -255 -2 -263 -4 -10 -3 -14 2 -12 14 3 18 -14 22 -36 8z"/>
<path d="M2509 3149 c-13 -10 -31 -19 -40 -19 -21 0 -30 -21 -22 -50 4 -14 11
-19 21 -15 12 4 12 1 -2 -20 -29 -44 -9 -27 26 23 60 85 68 99 53 99 -7 0 -24
-8 -36 -18z m21 -9 c-6 -11 -13 -20 -16 -20 -2 0 0 9 6 20 6 11 13 20 16 20 2
0 0 -9 -6 -20z"/>
<path d="M3310 3166 c0 -2 7 -6 15 -10 8 -3 15 -1 15 4 0 6 -7 10 -15 10 -8 0
-15 -2 -15 -4z"/>
<path d="M2241 3103 c23 -35 44 -63 47 -63 2 0 -3 11 -12 25 -18 27 -21 39 -7
31 5 -4 7 3 4 15 -4 14 -9 17 -16 10 -8 -8 -18 -3 -35 16 -13 16 -5 0 19 -34z"/>
<path d="M4453 3100 c0 -25 2 -35 4 -22 2 12 2 32 0 45 -2 12 -4 2 -4 -23z"/>
<path d="M3253 3020 c0 -25 2 -35 4 -22 2 12 2 32 0 45 -2 12 -4 2 -4 -23z"/>
<path d="M2424 2984 c-15 -22 -24 -25 -55 -22 -20 2 -35 0 -33 -4 3 -5 20 -8
39 -8 26 0 38 7 55 30 12 17 19 30 16 30 -3 0 -13 -12 -22 -26z"/>
<path d="M5172 2963 c-15 -48 -8 -55 8 -8 7 20 10 38 8 41 -3 2 -10 -13 -16
-33z"/>
<path d="M5100 2949 c7 -11 14 -19 16 -16 7 7 -7 37 -17 37 -6 0 -5 -9 1 -21z"/>
<path d="M5135 2953 c3 -8 5 -20 5 -26 0 -15 20 14 20 29 0 6 -7 11 -15 11
-10 0 -14 -6 -10 -14z"/>
<path d="M3321 2911 c-10 -7 -10 -10 -1 -16 6 -4 16 -3 22 3 13 13 -4 23 -21
13z"/>
<path d="M5098 2868 c-30 -33 -39 -37 -65 -32 -29 6 -44 -4 -49 -31 -6 -31
-11 -41 -29 -53 -18 -11 -17 -12 10 -6 64 14 152 79 180 134 21 41 -5 34 -47
-12z m12 -22 c0 -2 -8 -10 -17 -17 -16 -13 -17 -12 -4 4 13 16 21 21 21 13z"/>
<path d="M3568 2893 c84 -2 219 -2 300 0 81 1 12 3 -153 3 -165 0 -231 -2
-147 -3z"/>
<path d="M4532 2893 c37 -2 100 -2 140 0 40 1 10 3 -67 3 -77 0 -110 -1 -73
-3z"/>
<path d="M4476 2871 c15 -15 47 -17 51 -3 3 8 -6 12 -28 12 -20 0 -29 -4 -23
-9z"/>
<path d="M1973 2853 c-18 -7 -16 -23 2 -23 8 0 15 7 15 15 0 8 -1 15 -2 14 -2
0 -9 -3 -15 -6z"/>
<path d="M2753 2815 c0 -22 2 -30 4 -17 2 12 2 30 0 40 -3 9 -5 -1 -4 -23z"/>
<path d="M1943 2776 c3 -8 1 -17 -6 -20 -7 -2 -2 -5 10 -5 16 -1 20 3 16 19
-3 11 -10 20 -15 20 -6 0 -8 -6 -5 -14z"/>
<path d="M2000 2750 c0 -5 -39 -11 -87 -13 l-88 -3 93 -2 c76 -2 92 1 92 13 0
8 -2 15 -5 15 -3 0 -5 -4 -5 -10z"/>
<path d="M2830 2175 l0 -165 100 0 c69 0 110 5 129 15 53 27 61 111 15 142
-21 13 -22 17 -9 30 37 36 24 105 -25 130 -15 8 -63 13 -117 13 l-93 0 0 -165z
m174 105 c18 -7 26 -17 26 -34 0 -33 -26 -46 -89 -46 l-51 0 0 45 0 45 44 0
c25 0 56 -4 70 -10z m28 -147 c22 -20 23 -31 1 -55 -12 -14 -31 -18 -80 -18
l-63 0 0 45 0 45 62 0 c43 0 67 -5 80 -17z"/>
<path d="M3260 2176 l0 -166 115 0 115 0 0 25 c0 25 -1 25 -85 25 l-84 0 -3
138 -3 137 -27 3 -28 3 0 -165z"/>
<path d="M3676 2318 c-52 -30 -76 -78 -76 -149 0 -98 66 -163 165 -163 69 0
120 27 150 79 47 80 28 173 -48 229 -42 31 -141 34 -191 4z m144 -43 c102 -53
62 -215 -53 -215 -67 1 -107 44 -107 118 0 85 84 136 160 97z"/>
<path d="M4161 2323 c-43 -21 -79 -77 -87 -133 -10 -83 55 -168 141 -184 42
-8 104 7 136 33 23 19 23 19 5 40 -19 20 -19 20 -44 1 -47 -38 -136 -18 -160
35 -49 108 54 215 152 157 33 -19 35 -19 50 -3 22 24 21 28 -16 51 -41 25
-129 26 -177 3z"/>
<path d="M4520 2175 l0 -165 30 0 c29 0 30 1 30 48 0 38 5 53 24 71 l24 23 53
-71 c50 -67 56 -71 93 -71 36 0 38 1 24 18 -53 61 -128 157 -128 163 0 3 30
39 66 78 l66 71 -33 0 c-28 0 -46 -12 -111 -77 l-78 -78 0 78 0 77 -30 0 -30
0 0 -165z"/>
<path d="M4992 2323 c-116 -57 -118 -239 -3 -297 64 -33 142 -27 192 13 23 19
23 19 5 40 -19 20 -19 20 -44 1 -82 -65 -212 33 -172 130 30 72 103 99 167 61
30 -19 32 -19 48 -1 21 23 13 38 -31 56 -44 19 -121 17 -162 -3z"/>
<path d="M5350 2175 l0 -165 30 0 30 0 0 70 0 70 80 0 80 0 0 -70 0 -70 30 0
30 0 0 165 0 165 -30 0 -30 0 0 -70 0 -70 -79 0 -80 0 -7 70 c-6 65 -8 70 -30
70 l-24 0 0 -165z"/>
<path d="M5865 2253 c-21 -49 -53 -123 -71 -165 l-33 -78 30 0 c25 0 33 6 45
35 l14 35 79 0 80 0 12 -35 c11 -30 17 -35 46 -35 l33 0 -26 58 c-14 31 -46
105 -71 165 -42 99 -48 107 -73 107 -25 0 -31 -8 -65 -87z m84 -35 c38 -90 39
-88 -18 -88 -28 0 -51 4 -51 9 0 13 42 121 47 121 2 0 12 -19 22 -42z"/>
<path d="M6230 2176 l0 -166 30 0 30 0 -2 163 -3 162 -27 3 -28 3 0 -165z"/>
<path d="M6450 2175 l0 -165 30 0 29 0 3 113 3 112 85 -112 c71 -94 89 -112
113 -112 l27 -1 0 165 0 165 -30 0 -30 0 0 -112 c0 -130 12 -132 -105 21 -58
76 -73 91 -97 91 l-28 0 0 -165z"/>
<path d="M7100 2176 l0 -166 30 0 30 0 0 70 0 70 80 0 80 0 0 -70 0 -70 30 0
30 0 0 165 0 165 -30 0 -30 0 0 -70 0 -70 -80 0 -79 0 -3 68 c-3 65 -4 67 -30
70 l-28 3 0 -165z"/>
<path d="M7620 2322 c-96 -53 -115 -187 -38 -269 34 -36 100 -57 155 -48 67
10 128 71 138 138 10 64 -15 128 -62 164 -47 36 -141 44 -193 15z m147 -52
c36 -22 60 -82 49 -125 -4 -15 -20 -40 -36 -56 -23 -24 -37 -29 -75 -29 -38 0
-52 5 -74 28 -99 98 18 255 136 182z"/>
<path d="M8051 2314 c-25 -21 -31 -33 -31 -65 0 -52 31 -81 102 -97 49 -12 88
-35 88 -53 0 -38 -90 -52 -140 -22 -24 14 -31 14 -44 4 -25 -21 -19 -37 22
-57 43 -21 135 -24 170 -5 29 16 54 73 46 105 -9 36 -34 55 -110 79 -47 15
-70 28 -72 40 -9 44 47 60 113 33 32 -14 36 -13 45 4 5 10 10 21 10 24 0 15
-66 36 -114 36 -44 0 -60 -5 -85 -26z"/>
<path d="M8410 2175 l0 -165 30 0 c30 0 30 1 30 55 l0 55 60 0 c73 0 113 18
130 60 14 34 8 93 -12 117 -24 29 -76 43 -158 43 l-80 0 0 -165z m178 99 c26
-18 29 -60 5 -86 -12 -13 -30 -18 -70 -18 l-53 0 0 60 0 60 48 0 c27 0 57 -7
70 -16z"/>
<path d="M8810 2175 l0 -165 30 0 30 0 0 165 0 165 -30 0 -30 0 0 -165z"/>
<path d="M9010 2316 c0 -23 4 -25 53 -28 l52 -3 3 -137 3 -138 24 0 25 0 0
124 c0 143 6 156 71 156 35 0 39 3 39 25 l0 25 -135 0 -135 0 0 -24z"/>
<path d="M9437 2211 c-32 -72 -64 -146 -72 -166 l-15 -35 30 0 c25 0 32 6 44
35 l15 35 80 0 81 0 14 -35 c13 -29 20 -35 45 -35 28 0 30 2 21 23 -4 12 -36
85 -69 162 -55 129 -62 140 -88 143 -27 3 -30 -2 -86 -127z m112 -7 c11 -31
21 -60 21 -65 0 -5 -22 -9 -50 -9 -27 0 -50 4 -50 10 0 16 44 120 51 120 3 0
16 -25 28 -56z"/>
<path d="M9820 2175 l0 -165 115 0 115 0 0 25 c0 25 -1 25 -85 25 l-85 0 0
140 0 140 -30 0 -30 0 0 -165z"/>
<path d="M1837 2203 c-2 -5 -3 -15 -3 -23 1 -13 48 -15 354 -18 193 -1 352 1
352 5 0 5 -138 7 -306 5 -197 -2 -303 1 -300 7 4 6 -15 12 -46 14 -29 2 105 3
299 3 193 -1 349 2 346 7 -2 4 -159 7 -348 7 -189 0 -346 -3 -348 -7z"/>
<path d="M10144 2195 c-3 -8 -3 -19 1 -25 4 -6 120 -10 346 -10 297 0 340 2
346 15 8 23 -2 28 -20 10 -18 -17 -37 -20 -37 -5 0 6 -10 11 -22 11 -15 1 -11
4 12 9 19 4 -91 7 -245 6 l-280 0 225 -6 225 -6 -150 -3 c-114 -3 -137 -6 -95
-11 37 -5 3 -7 -107 -8 -114 -2 -163 1 -163 9 0 6 -7 9 -15 5 -8 -3 -15 -1
-15 4 0 5 10 11 23 13 l22 4 -23 2 c-12 0 -25 -6 -28 -14z"/>
<path d="M2353 2183 c9 -2 23 -2 30 0 6 3 -1 5 -18 5 -16 0 -22 -2 -12 -5z"/>
<path d="M10308 2183 c7 -3 16 -2 19 1 4 3 -2 6 -13 5 -11 0 -14 -3 -6 -6z"/>
</g>
</svg>
